# xmcd CD database file
#
# Track frame offsets:
#	150
#	15550
#	31918
#	47522
#	64814
#	81416
#	95719
#	114160
#	130884
#	146750
#	165248
#	177844
#
# Disc length: 2601 seconds
#
# Revision: 0
# Processed by: cddbd v1.5.2PL0 Copyright (c) Steve Scherf et al.
# Submitted via: CDex 1.51
#
DISCID=960a270c
DTITLE=Bradley West - Slow Train
DYEAR=1900
DGENRE=Country
TTITLE0=Slow Train
TTITLE1=Grandma's Wishes
TTITLE2=Alright With me
TTITLE3=These Days
TTITLE4=Big Mack Donald
TTITLE5=All We Did
TTITLE6=Some Things Daddies Can't Fix
TTITLE7=Till We Get It Right
TTITLE8=Unless You Can Pay the Price
TTITLE9=Down Home Country Blues
TTITLE10=Willie's Song
TTITLE11=When I Get to Where I'm Going
EXTD=
EXTT0=
EXTT1=
EXTT2=
EXTT3=
EXTT4=
EXTT5=
EXTT6=
EXTT7=
EXTT8=
EXTT9=
EXTT10=
EXTT11=
PLAYORDER=
